<?xml version="1.0"?>
<svg xmlns="http://www.w3.org/2000/svg" xmlns:xlink="http://www.w3.org/1999/xlink" xmlns:svgjs="http://svgjs.com/svgjs" version="1.1" width="512" height="512" x="0" y="0" viewBox="0 0 24 24" style="enable-background:new 0 0 512 512" xml:space="preserve" class=""><g><g xmlns="http://www.w3.org/2000/svg" id="XMLID_1_"><path d="m20.63 5.197c-.21-.27-.44-.53-.68-.78.2-.09.38-.19.56-.29l.5.87c-.12.07-.25.14-.38.2z" fill="#db191a" data-original="#000000" style=""/><path d="m17.04 5.427c1.07-.25 2.06-.59 2.91-1.01.24.25.47.51.68.78-.96.49-2.08.9-3.3 1.2-.09-.34-.18-.66-.29-.97z" fill="#db191a" data-original="#000000" style=""/><path d="m18 11.997c0 .18 0 .36-.01.53-.02.28-.27.48-.53.47-.27-.01-.48-.25-.47-.53.01-.15.01-.31.01-.47 0-1.95-.24-3.79-.67-5.4.34-.06.67-.13 1-.2.43 1.66.67 3.56.67 5.6z" fill="#db191a" data-original="#000000" style=""/><path d="m17.33 6.397c-.33.07-.66.14-1 .2-.08-.33-.18-.65-.28-.96.34-.06.67-.13.99-.21.11.31.2.63.29.97z" fill="#db191a" data-original="#000000" style=""/><path d="m16.05 5.637c-.82-2.5-2.11-4.25-3.55-4.58v-.05c.8.04 1.58.16 2.33.37.91.94 1.67 2.34 2.21 4.05-.32.08-.65.15-.99.21z" fill="#db191a" data-original="#000000" style=""/><path d="m19.95 4.417c-1.39-1.45-3.16-2.51-5.12-3.04-.83-.88-1.79-1.37-2.81-1.38 5.58.01 10.5 3.97 11.7 9.42.06.27-.11.53-.38.59s-.54-.11-.6-.38c-.36-1.65-1.1-3.16-2.11-4.43.13-.06.26-.13.38-.2l-.5-.87c-.18.1-.36.2-.56.29z" fill="#db191a" data-original="#000000" style=""/><path d="m16.33 6.597c-1.21.24-2.5.37-3.83.39v-1c1.23-.02 2.43-.14 3.55-.35.1.31.2.63.28.96z" fill="#db191a" data-original="#000000" style=""/><path d="m12 6.997c.17 0 .34 0 .5-.01v3.29c0 .28-.22.5-.5.5s-.5-.22-.5-.5v-3.29c.16.01.33.01.5.01z" fill="#db191a" data-original="#000000" style=""/><path d="m12 6.997c-.17 0-.34 0-.5-.01v-1c.16.01.33.01.5.01s.34 0 .5-.01v1c-.16.01-.33.01-.5.01z" fill="#db191a" data-original="#000000" style=""/><path d="m12.5 1.057v4.93c-.16.01-.33.01-.5.01s-.34 0-.5-.01v-4.93c.16-.04.33-.06.5-.06.08 0 .17 0 .25.01.09.01.17.03.25.05z" fill="#db191a" data-original="#000000" style=""/><path d="m12.5 1.007v.05c-.08-.02-.16-.04-.25-.05.08-.01.17 0 .25 0z" fill="#db191a" data-original="#000000" style=""/><path d="m12.22 23.317c.03.06.04.12.04.19 0 .01 0 .02-.01.03.01-.08-.01-.15-.03-.22z" fill="#db191a" data-original="#000000" style=""/><path d="m12.2 23.717c.02-.05.04-.12.05-.18 0 .07-.02.13-.05.18z" fill="#db191a" data-original="#000000" style=""/><path d="m12.22 23.307c-.03-.05-.06-.1-.1-.15.05.04.08.09.1.15z" fill="#db191a" data-original="#000000" style=""/><path d="m12 .997c-.17 0-.33 0-.5.01v-.26c0-.27.22-.5.5-.5s.5.23.5.5v.26c-.08 0-.17-.01-.25 0-.08-.01-.17-.01-.25-.01z" fill="#db191a" data-original="#000000" style=""/><path d="m12.04 23.087c.04.02.06.05.08.07-.02-.02-.05-.05-.08-.07z" fill="#db191a" data-original="#000000" style=""/><path d="m12.2 23.717c-.05.12-.15.21-.27.24.12-.05.21-.13.27-.24z" fill="#db191a" data-original="#000000" style=""/><path d="m11.5 1.007c.17-.01.33-.01.5-.01-.17 0-.34.02-.5.06z" fill="#db191a" data-original="#000000" style=""/><path d="m11.96 23.037c-.04-.02-.09-.03-.14-.04.05.01.1.02.14.04z" fill="#db191a" data-original="#000000" style=""/><path d="m12.2 23.717c-.06.11-.15.19-.27.24-.05.02-.11.03-.18.03-.02 0-.03 0-.05 0-.91-.09-1.77-.55-2.53-1.36.83.22 1.7.35 2.6.37h.03s.01 0 .02 0c.05.01.1.02.14.04.03.01.05.03.08.05s.06.05.08.07c.04.05.07.1.1.15 0 0-.01.01 0 .01.02.07.04.14.03.22-.01.06-.03.13-.05.18z" fill="#db191a" data-original="#000000" style=""/><path d="m12 .247c-.28 0-.5.23-.5.5v.26c-.8.04-1.57.16-2.32.36.84-.88 1.79-1.37 2.82-1.37h.02c1.02.01 1.98.5 2.81 1.38-.75-.21-1.53-.33-2.33-.37v-.26c0-.27-.22-.5-.5-.5z" fill="#db191a" data-original="#000000" style=""/><path d="m10.76 11.997c0 .28-.22.5-.5.5h-3.25c-.01-.16-.01-.33-.01-.5s0-.33.01-.5h3.25c.28 0 .5.23.5.5z" fill="#db191a" data-original="#000000" style=""/><path d="m10.21 16.997 3.29 3.3v-1.8c0-.27.22-.5.5-.5h4.5c1.85 0 3.45-1.12 4.14-2.73-.59.46-1.34.73-2.14.73h-6.5c-.28 0-.5-.22-.5-.5v-1.79zm-1.06.36c-.2-.2-.2-.51 0-.71l4.5-4.5c.14-.14.36-.19.54-.11.19.08.31.26.31.46v2.5h6c1.38 0 2.5-1.12 2.5-2.5 0-.27.22-.5.5-.5s.5.23.5.5v1c0 3.04-2.47 5.5-5.5 5.5h-4v2.5c0 .21-.12.39-.31.47-.06.02-.13.03-.19.03-.13 0-.26-.05-.35-.14z" fill="#db191a" data-original="#000000" style=""/><path d="m7.95 5.637c1.12.21 2.32.33 3.55.35v1c-1.33-.02-2.62-.15-3.83-.39.08-.33.18-.65.28-.96z" fill="#db191a" data-original="#000000" style=""/><path d="m8.36 19.447c.88 2.11 2.12 3.4 3.41 3.55-.9-.02-1.77-.15-2.6-.37-.66-.69-1.24-1.63-1.73-2.79-.11-.26.01-.55.27-.66.25-.1.55.02.65.27z" fill="#db191a" data-original="#000000" style=""/><path d="m11.5 1.057c-1.44.33-2.73 2.08-3.55 4.58-.34-.06-.67-.13-.99-.21.55-1.72 1.31-3.12 2.22-4.06.75-.2 1.52-.32 2.32-.36z" fill="#db191a" data-original="#000000" style=""/><path d="m6.96 5.427c.32.08.65.15.99.21-.1.31-.2.63-.28.96-.34-.06-.67-.13-1-.2.09-.34.18-.66.29-.97z" fill="#db191a" data-original="#000000" style=""/><path d="m7.29 15.627c.05.27-.13.53-.4.58-.03 0-.06 0-.09 0-.24 0-.45-.17-.49-.41-.18-1.03-.28-2.14-.3-3.3h1c.02 1.1.11 2.15.28 3.13z" fill="#db191a" data-original="#000000" style=""/><path d="m7.67 6.597c-.39 1.47-.63 3.14-.66 4.9h-1c.03-1.85.27-3.58.66-5.1.33.07.66.14 1 .2z" fill="#db191a" data-original="#000000" style=""/><path d="m7 11.997c0 .17 0 .34.01.5h-1c-.01-.16-.01-.33-.01-.5s0-.33.01-.5h1c-.01.17-.01.33-.01.5z" fill="#db191a" data-original="#000000" style=""/><path d="m6.96 5.427c-.11.31-.2.63-.29.97-1.23-.3-2.35-.7-3.31-1.2.21-.27.44-.53.68-.78.85.41 1.84.75 2.92 1.01z" fill="#db191a" data-original="#000000" style=""/><path d="m6.01 11.497c-.01.17-.01.33-.01.5s0 .34.01.5h-5c-.01-.17-.01-.33-.01-.5s0-.34.01-.5z" fill="#db191a" data-original="#000000" style=""/><path d="m6.83 18.597c-1.04.26-1.97.58-2.77.98-.24-.25-.47-.51-.68-.77.92-.49 2-.88 3.21-1.18.27-.07.54.1.61.36.06.27-.1.54-.37.61z" fill="#db191a" data-original="#000000" style=""/><path d="m4.06 19.577c1.37 1.44 3.13 2.52 5.11 3.05.76.81 1.62 1.27 2.53 1.36h.05c.07 0 .13-.01.18-.03-.05.03-.11.04-.17.04h-.01c-3.5-.07-6.65-1.67-8.8-4.16.08.07.19.1.29.1.09 0 .17-.02.25-.06.18-.1.37-.21.57-.3z" fill="#db191a" data-original="#000000" style=""/><path d="m3.49 4.127c.17.1.36.19.55.29-.24.25-.47.51-.68.78-.13-.07-.25-.13-.37-.2z" fill="#db191a" data-original="#000000" style=""/><path d="m3.38 18.807c.21.26.44.52.68.77-.2.09-.39.2-.57.3-.08.04-.16.06-.25.06-.1 0-.21-.03-.29-.1-.04-.04-.09-.09-.14-.15 0-.01-.01-.01-.01-.02-.13-.24-.04-.52.19-.66.13-.07.26-.14.39-.2z" fill="#db191a" data-original="#000000" style=""/><path d="m2.81 19.687c.05.06.1.11.14.15-.06-.04-.11-.09-.14-.15z" fill="#db191a" data-original="#000000" style=""/><path d="m1 11.997c0 .17 0 .33.01.5h-.26c-.28 0-.5-.22-.5-.5 0-.27.22-.5.5-.5h.26c-.01.16-.01.33-.01.5z" fill="#db191a" data-original="#000000" style=""/><path d="m0 11.997c0-6.61 5.38-12 12-12-1.03 0-1.98.49-2.82 1.37-1.99.52-3.76 1.6-5.14 3.05-.19-.1-.38-.19-.55-.29l-.5.87c.12.07.24.13.37.2-1.38 1.75-2.24 3.92-2.35 6.3h-.26c-.28 0-.5.23-.5.5 0 .28.22.5.5.5h.26c.11 2.36.98 4.55 2.37 6.31-.13.06-.26.13-.39.2-.23.14-.32.42-.19.66-1.74-2.08-2.8-4.76-2.8-7.67z" fill="#db191a" data-original="#000000" style=""/></g></g></svg>
