<?xml version="1.0"?>
<svg xmlns="http://www.w3.org/2000/svg" xmlns:xlink="http://www.w3.org/1999/xlink" xmlns:svgjs="http://svgjs.com/svgjs" version="1.1" width="512" height="512" x="0" y="0" viewBox="0 0 325.003 325.003" style="enable-background:new 0 0 512 512" xml:space="preserve" class=""><g>
<g xmlns="http://www.w3.org/2000/svg">
	<path d="M162.304,68.95c-0.018,0-0.037,0-0.055,0h-0.166c-0.018,0-0.036,0-0.055,0c-25.429,0.056-49.266,9.752-67.143,27.317   c-18.028,17.714-27.957,41.466-27.957,66.879c0,28.487,12.264,54.773,33.646,72.117c3.3,2.678,8.836,11.21,8.836,38.268v43.54   c0,3.313,2.687,6,6,6h93.507c3.313,0,6-2.687,6-6v-43.54c0-0.048-0.006-0.093-0.007-0.14c0.001-0.048,0.007-0.094,0.007-0.141   c0-27.306,5.537-35.872,8.841-38.55c21.695-17.606,33.644-43.018,33.644-71.555c0-25.414-9.928-49.165-27.955-66.879   C211.571,78.702,187.734,69.006,162.304,68.95z M202.919,311.071h-81.507v-31.54h56.776c0.265,0.036,0.532,0.061,0.807,0.061   s0.542-0.024,0.807-0.061h23.117V311.071z M150.436,183.776h23.579c-0.563,22.683-0.947,61.295-1.011,83.755h-21.565   C151.375,246.735,151.008,207.079,150.436,183.776z M216.2,225.382c-8.231,6.673-12.557,20.504-13.189,42.149h-18.007   c0.066-24.62,0.503-62.425,1.013-83.755h12.83c10.753,0,19.837-9.523,19.837-20.796c0-11.015-9.084-20.32-19.837-20.32   c-9.865,0-21.367,6.176-24.064,23.514c-0.133,0.858-0.261,2.805-0.384,5.602h-24.341c-0.127-2.913-0.26-4.944-0.399-5.842   c-1.776-11.482-9.029-23.752-24.059-23.752c-10.751,0-19.833,9.524-19.833,20.798c0,11.273,9.082,20.796,19.833,20.796h12.832   c0.51,21.434,0.945,59.195,1.01,83.755h-18.132c-0.668-21.294-4.987-34.944-13.174-41.587   C89.575,210.889,78.929,188,78.929,163.146c0-22.168,8.653-42.88,24.367-58.319c15.651-15.378,36.556-23.856,58.87-23.877   c22.316,0.021,43.22,8.499,58.87,23.877c15.713,15.439,24.366,36.15,24.366,58.319C245.403,187.997,235.031,210.099,216.2,225.382z    M186.387,171.776c0.084-1.902,0.169-3.196,0.253-3.763c1.808-11.619,8.423-13.354,12.206-13.354c4.175,0,7.837,3.888,7.837,8.32   c0,4.604-3.735,8.796-7.837,8.796H186.387z M138.064,171.776h-12.465c-4.1,0-7.833-4.192-7.833-8.796   c0-4.604,3.733-8.798,7.833-8.798c8.786,0,11.415,8.512,12.199,13.588C137.886,168.361,137.975,169.742,138.064,171.776z" fill="#db191a" data-original="#000000" style=""/>
	<path d="M204.658,61.995c0.77,0.33,1.572,0.487,2.36,0.487c2.328,0,4.543-1.363,5.518-3.639l20.656-48.197   c1.306-3.046-0.105-6.573-3.151-7.878c-3.047-1.309-6.574,0.105-7.878,3.151l-20.656,48.197   C200.201,57.163,201.612,60.69,204.658,61.995z" fill="#db191a" data-original="#000000" style=""/>
	<path d="M112.083,58.85c0.938,2.346,3.191,3.773,5.573,3.773c0.741,0,1.496-0.139,2.227-0.431c3.076-1.231,4.573-4.723,3.343-7.8   L103.75,5.706c-1.23-3.076-4.721-4.574-7.8-3.343c-3.076,1.231-4.573,4.723-3.343,7.8L112.083,58.85z" fill="#db191a" data-original="#000000" style=""/>
	<path d="M3.996,104.76l48.192,20.668c0.772,0.33,1.573,0.487,2.362,0.487c2.327,0,4.542-1.363,5.518-3.637   c1.306-3.046-0.104-6.573-3.149-7.88L8.726,93.731c-3.048-1.305-6.574,0.104-7.88,3.149C-0.459,99.926,0.951,103.454,3.996,104.76z   " fill="#db191a" data-original="#000000" style=""/>
	<path d="M52.46,203.699L3.772,223.186c-3.076,1.231-4.572,4.724-3.341,7.8c0.939,2.346,3.191,3.772,5.572,3.772   c0.742,0,1.497-0.139,2.227-0.432l48.688-19.487c3.076-1.231,4.572-4.724,3.341-7.8C59.029,203.964,55.534,202.468,52.46,203.699z" fill="#db191a" data-original="#000000" style=""/>
	<path d="M321.005,224.083l-48.209-20.654c-3.053-1.307-6.573,0.105-7.879,3.152c-1.305,3.046,0.107,6.573,3.152,7.879   l48.209,20.654c0.772,0.33,1.572,0.486,2.36,0.486c2.328,0,4.543-1.363,5.519-3.639   C325.462,228.916,324.051,225.388,321.005,224.083z" fill="#db191a" data-original="#000000" style=""/>
	<path d="M270.303,125.588c0.742,0,1.496-0.139,2.228-0.432l48.7-19.491c3.076-1.231,4.572-4.724,3.341-7.8   c-1.23-3.077-4.722-4.572-7.8-3.341l-48.7,19.491c-3.076,1.231-4.572,4.724-3.341,7.8   C265.67,124.161,267.922,125.588,270.303,125.588z" fill="#db191a" data-original="#000000" style=""/>
</g>
<g xmlns="http://www.w3.org/2000/svg">
</g>
<g xmlns="http://www.w3.org/2000/svg">
</g>
<g xmlns="http://www.w3.org/2000/svg">
</g>
<g xmlns="http://www.w3.org/2000/svg">
</g>
<g xmlns="http://www.w3.org/2000/svg">
</g>
<g xmlns="http://www.w3.org/2000/svg">
</g>
<g xmlns="http://www.w3.org/2000/svg">
</g>
<g xmlns="http://www.w3.org/2000/svg">
</g>
<g xmlns="http://www.w3.org/2000/svg">
</g>
<g xmlns="http://www.w3.org/2000/svg">
</g>
<g xmlns="http://www.w3.org/2000/svg">
</g>
<g xmlns="http://www.w3.org/2000/svg">
</g>
<g xmlns="http://www.w3.org/2000/svg">
</g>
<g xmlns="http://www.w3.org/2000/svg">
</g>
<g xmlns="http://www.w3.org/2000/svg">
</g>
</g></svg>
